<svg width="500" height="500" viewBox="0 0 500 500" xmlns="http://www.w3.org/2000/svg" xmlns:xlink="http://www.w3.org/1999/xlink" overflow="hidden"><defs></defs><g id="twisted-t" stroke="none" stroke-width="1" fill="none" fill-rule="evenodd"><g id="outlined-white"><g id="group" transform="translate(77 30)"><path d="M267.318 0 345.296 43.1712 345.296 137.056 267.318 93.9958 267.318 0ZM339.281 146.381 261.971 189.069 261.042 188.549 184.475 146.344 261.748 103.618 339.281 146.381ZM83.8455 287.337 6.12688 244.798 78.7583 204.673 79.1296 207.385C81.5061 224.438 88.3014 245.578 101.149 275.894L101.818 277.455 83.8455 287.337ZM89.3782 397.94 89.3782 396.751C90.8635 374.46 104.231 340.354 115.371 315.61L117.079 311.895 121.758 322.038C135.497 351.76 161.118 407.228 165.871 436.653L166.503 440.368 89.3782 397.94ZM256.178 396.714 256.178 397.903 177.828 441 177.457 438.288C173.112 407.34 150.981 357.444 127.699 308.254 89.0069 226.221 89.1926 204.785 89.3411 186.06L89.3411 186.06 0 235.25 0 141.662 256.215 0.074305 256.215 93.8843 167.097 143.037 167.097 144.04C166.874 155.632 166.391 179.818 212.213 276.006 240.694 335.71 254.656 374.051 256.178 396.751L256.178 396.714ZM230.185 280.724 228.329 284.737 226.583 280.761C224.949 277.046 222.424 271.51 219.38 264.934 206.049 235.955 183.769 187.509 179.722 160.09L179.165 156.375 256.178 198.729 256.178 199.955C254.321 222.692 241.399 255.089 230.185 280.761L230.185 280.724Z" id="Shape" stroke-linecap="butt" fill="#000000" fill-opacity="1"/><path d="M267.318 0 345.296 43.1712 345.296 137.056 267.318 93.9958 267.318 0ZM339.281 146.381 261.971 189.069 261.042 188.549 184.475 146.344 261.748 103.618 339.281 146.381ZM83.8455 287.337 6.12688 244.798 78.7583 204.673 79.1296 207.385C81.5061 224.438 88.3014 245.578 101.149 275.894L101.818 277.455 83.8455 287.337ZM89.3782 397.94 89.3782 396.751C90.8635 374.46 104.231 340.354 115.371 315.61L117.079 311.895 121.758 322.038C135.497 351.76 161.118 407.228 165.871 436.653L166.503 440.368 89.3782 397.94ZM256.178 396.714 256.178 397.903 177.828 441 177.457 438.288C173.112 407.34 150.981 357.444 127.699 308.254 89.0069 226.221 89.1926 204.785 89.3411 186.06L89.3411 186.06 0 235.25 0 141.662 256.215 0.074305 256.215 93.8843 167.097 143.037 167.097 144.04C166.874 155.632 166.391 179.818 212.213 276.006 240.694 335.71 254.656 374.051 256.178 396.751L256.178 396.714ZM230.185 280.724 228.329 284.737 226.583 280.761C224.949 277.046 222.424 271.51 219.38 264.934 206.049 235.955 183.769 187.509 179.722 160.09L179.165 156.375 256.178 198.729 256.178 199.955C254.321 222.692 241.399 255.089 230.185 280.761L230.185 280.724Z" id="Shape" stroke="#FFFFFF" stroke-width="5" stroke-linecap="butt" fill="#000000" fill-opacity="1"/></g></g></g></svg>