<?xml version="1.0" encoding="utf-8"?>
<svg version="1.1" xmlns="http://www.w3.org/2000/svg" xmlns:xlink="http://www.w3.org/1999/xlink" height="142.15228075893063" width="141.4213562373095">
  <defs>
    <path id="path-1" opacity="1" fill-rule="evenodd" d="M28.710678118654755,21.710678118654755 L112.71067811865476,21.710678118654755 C117.12599831460676,21.710678118654755 120.71067811865476,25.295357922702756 120.71067811865476,29.710678118654755 L120.71067811865476,113.71067811865476 C120.71067811865476,118.12599831460676 117.12599831460676,121.71067811865476 112.71067811865476,121.71067811865476 L28.710678118654755,121.71067811865476 C24.295357922702756,121.71067811865476 20.710678118654755,118.12599831460676 20.710678118654755,113.71067811865476 L20.710678118654755,29.710678118654755 C20.710678118654755,25.295357922702756 24.295357922702753,21.710678118654755 28.710678118654755,21.710678118654755Z"/>
    <mask id="mask-2" maskUnits="userSpaceOnUse" maskContentUnits="userSpaceOnUse" x="0" y="0">
      <rect opacity="1" x="0" y="0" width="141.4213562373095" height="142.15228075893063" fill="black"/>
      <use xlink:href="#path-1" fill="white"/>
    </mask>
    <path id="path-3" opacity="1" fill-rule="evenodd" d="M28.710678118654755,20.710678118654755 L112.71067811865476,20.710678118654755 C117.12599831460676,20.710678118654755 120.71067811865476,24.295357922702756 120.71067811865476,28.710678118654755 L120.71067811865476,112.71067811865476 C120.71067811865476,117.12599831460676 117.12599831460676,120.71067811865476 112.71067811865476,120.71067811865476 L28.710678118654755,120.71067811865476 C24.295357922702756,120.71067811865476 20.710678118654755,117.12599831460676 20.710678118654755,112.71067811865476 L20.710678118654755,28.710678118654755 C20.710678118654755,24.295357922702756 24.295357922702753,20.710678118654755 28.710678118654755,20.710678118654755Z"/>
    <mask id="mask-4" maskUnits="userSpaceOnUse" maskContentUnits="userSpaceOnUse" x="0" y="0">
      <rect opacity="1" x="0" y="0" width="141.4213562373095" height="142.15228075893063" fill="black"/>
      <use xlink:href="#path-3" fill="white"/>
    </mask>
    <path id="path-5" opacity="1" fill-rule="evenodd" d="M79,78 L79,98.5754716981132 L88.82242766875925,98.5754716981132 C88.82242766875925,98.5754716981132 91.49241621403903,98.46627444618466 94.22476288657681,96.61590296495957 C96.65449188856272,94.9704670846713 98.19993947281263,91.76931470714635 98.19993947281263,88.77676239850757 C98.19993947281263,88.51645189449061 98.2459353656761,84.00864542428832 95.80202010957117,81.42924528301887 C92.55289845139714,78 88.82242766875926,78 88.82242766875926,78 L79,78Z"/>
    <path id="path-6" opacity="1" fill-rule="evenodd" d="M49.52085769980505,55.93481831531915 L51.60548869602965,55.93481831531915 L62.02144249512669,55.93481831531915 "/>
    <path id="path-7" opacity="1" fill-rule="evenodd" d="M49,66.5754716981132 L49,56.777767580610586 L49,46 L63.06315789473684,46 "/>
    <path id="path-8" opacity="1" fill-rule="evenodd" d="M49.5175301544045,69.58803660922081 L91.903826082905,69.58803660922081 C92.52342879908223,69.58803660922081 93.02646759233896,70.09107540247754 93.02646759233896,70.71067811865477 C93.02646759233896,71.330280834832 92.52342879908223,71.83331962808873 91.903826082905,71.83331962808873 L49.5175301544045,71.83331962808873 C48.89792743822727,71.83331962808873 48.394888644970536,71.330280834832 48.394888644970536,70.71067811865477 C48.394888644970536,70.09107540247754 48.89792743822727,69.58803660922081 49.5175301544045,69.58803660922081Z"/>
  </defs>
  <g opacity="1">
    <g opacity="1">
      <g transform="translate(70.71067811865476, 71.71067811865476) rotate(50.000017878208354) translate(-70.71067811865476, -71.71067811865476)" opacity="1">
        <use xlink:href="#path-1" fill-opacity="0" stroke="rgb(242,242,242)" stroke-opacity="1" stroke-width="2" stroke-linecap="butt" stroke-linejoin="miter" mask="url(#mask-2)"/>
      </g>
      <g transform="translate(70.71067811865476, 70.71067811865476) rotate(45.00001609038752) translate(-70.71067811865476, -70.71067811865476)" opacity="1">
        <use xlink:href="#path-3" fill-opacity="0" stroke="rgb(242,242,242)" stroke-opacity="1" stroke-width="2" stroke-linecap="butt" stroke-linejoin="miter" mask="url(#mask-4)"/>
      </g>
    </g>
    <g opacity="1">
      <use xlink:href="#path-5" fill-opacity="0" stroke="rgb(255,255,255)" stroke-opacity="1" stroke-width="1.25" stroke-linecap="round" stroke-linejoin="round"/>
    </g>
    <g opacity="1">
      <g opacity="1">
        <use xlink:href="#path-6" fill-opacity="0" stroke="rgb(255,255,255)" stroke-opacity="1" stroke-width="1.25" stroke-linecap="round" stroke-linejoin="miter"/>
      </g>
      <g opacity="1">
        <use xlink:href="#path-7" fill-opacity="0" stroke="rgb(255,255,255)" stroke-opacity="1" stroke-width="1.25" stroke-linecap="round" stroke-linejoin="miter"/>
      </g>
    </g>
    <g transform="translate(70.71067811865476, 70.71067811865477) rotate(135.00004827116254) translate(-70.71067811865476, -70.71067811865477)" opacity="1">
      <use xlink:href="#path-8" fill="rgb(242,242,242)" fill-opacity="1"/>
    </g>
  </g>
</svg>